Coordinates
version=1
nRows=10
nColumns=33
inDegrees=yes

Units are S.I. units (second, meters, Newtons, ...)
Angles are in degrees.

endheader
time	ground_thorax_rot_x	ground_thorax_rot_y	ground_thorax_rot_z	ground_thorax_tx	ground_thorax_ty	ground_thorax_tz	clav_prot_r	clav_elev_r	scapula_abduction_r	scapula_elevation_r	scapula_upward_rot_r	scapula_winging_r	shoulder_elv_r	plane_of_elev_r	axial_rot_r	elbow_flexion_r	pro_sup_r	wrist_flex_r	wrist_dev_r	clav_prot_l	clav_elev_l	scapula_abduction_l	scapula_elevation_l	scapula_upward_rot_l	scapula_winging_l	shoulder_elv_l	plane_of_elev_l	axial_rot_l	elbow_flexion_l	pro_sup_l	wrist_flex_l	wrist_dev_l
     10.50000000	     36.52621765	     15.19747385	     14.43575260	    -89.50938470	    778.54146073	     17.74906951	     -1.33669462	     34.89519419	     45.00000000	     34.09747112	     26.09668696	   -831.36450218	  -2462.28797356	     18.16683899	   -179.99999979	   2165.94319945	   -103.21507346	     14.25597666	      9.82968615	     -0.41287981	    -45.00000000	    -45.00000000	     45.00000000	      0.80278870	   -981.26135887	  -2446.60360335	     13.99226055	    179.99999979	   -717.47756415	   -133.31865684	      7.10218804	    -15.12405682
     10.51000000	     36.66308724	     15.31698119	     14.53739515	    -90.77201988	    778.60486075	     17.59060320	     -1.44300037	     35.12230727	     45.00000000	     34.40979340	     26.30752120	   -831.45499655	  -2462.17076732	     17.85343624	   -179.99999979	   2165.90235927	   -103.55349599	     14.04441572	      9.71722541	     -0.52059978	    -45.00000000	    -45.00000000	     45.00000000	      1.06346148	   -980.92705360	  -2446.54470936	     13.71450529	    179.99999979	   -717.56934262	   -133.31067160	      7.11066455	    -15.20170123
     10.52000000	     36.72186898	     15.26379023	     14.22566200	    -92.08018587	    778.69892613	     17.43312311	     -1.39569874	     35.24086104	     45.00000000	     34.51068772	     26.37056029	   -831.65331610	  -2462.19549080	     18.13225075	   -179.99999979	   2166.05275357	   -103.89685330	     14.36768560	      9.89899338	     -0.50916324	    -45.00000000	    -45.00000000	     45.00000000	      1.24889041	   -980.72357085	  -2446.52471121	     13.98202559	    179.99999979	   -717.48090596	   -133.28081688	      7.19648259	    -15.24988093
     10.53000000	     36.77997363	     15.52050608	     14.34544159	    -93.42926729	    778.82792617	     17.27578753	     -1.50467069	     35.52685148	     45.00000000	     34.86804228	     26.56623749	   -831.67726454	  -2462.00832373	     17.87473202	   -179.99999979	   2166.06271316	   -104.22073109	     14.10273802	      9.78809359	     -0.61246569	    -45.00000000	    -45.00000000	     45.00000000	      1.62803551	   -980.45022487	  -2446.42356737	     13.73000771	    179.99999979	   -717.40767347	   -133.27429516	      7.25008619	    -15.31163450
     10.54000000	     36.83856098	     15.55064039	     14.16960255	    -94.82410526	    778.99647789	     17.11652225	     -1.46602618	     35.60225387	     45.00000000	     34.88508740	     26.51531023	   -831.83360760	  -2461.90698357	     18.03684853	   -179.99999979	   2166.11870549	   -104.57272081	     14.31518183	      9.90002628	     -0.65458208	    -45.00000000	    -45.00000000	     45.00000000	      1.93505391	   -980.14811190	  -2446.41812839	     13.86437025	    179.99999979	   -717.31059483	   -133.25306843	      7.29391773	    -15.32297187
     10.55000000	     37.00704681	     15.59427702	     14.05312678	    -96.25287625	    779.20693826	     16.95504696	     -1.48247019	     35.82505851	     45.00000000	     35.21626658	     26.66947098	   -831.96901584	  -2461.89451192	     17.99750792	   -179.99999979	   2166.15946123	   -104.91251997	     14.33422005	      9.90949402	     -0.76349089	    -45.00000000	    -45.00000000	     45.00000000	      2.47173901	   -979.78395050	  -2446.41732274	     13.75374204	    179.99999979	   -717.22849778	   -133.23686237	      7.42718296	    -15.46451671
     10.56000000	     37.07879783	     15.65330869	     14.00105516	    -97.72096005	    779.46197763	     16.78944253	     -1.50548981	     35.89194381	     45.00000000	     35.37418941	     26.74909177	   -832.06319587	  -2461.78621807	     17.97648527	   -179.99999979	   2166.20609582	   -105.25368563	     14.40984249	      9.96576493	     -0.89142286	    -45.00000000	    -45.00000000	     45.00000000	      2.93142288	   -979.38310119	  -2446.35149597	     13.72872742	    179.99999979	   -717.18674921	   -133.21498074	      7.42785307	    -15.46574632
     10.57000000	     37.14734328	     15.63309595	     13.90307284	    -99.22344339	    779.76238506	     16.61965560	     -1.48059561	     35.85561721	     45.00000000	     35.49295098	     26.72693739	   -832.03094177	  -2461.76523201	     18.05513003	   -179.99999979	   2166.22861546	   -105.60243587	     14.49801088	     10.00391078	     -0.99389122	    -45.00000000	    -45.00000000	     45.00000000	      3.49439094	   -978.98452167	  -2446.22139538	     13.67959150	    179.99999979	   -717.13863571	   -133.18422663	      7.55508096	    -15.61792043
     10.58000000	     37.29523394	     15.74013331	     13.84845833	   -100.75853250	    780.10711765	     16.44611700	     -1.50080557	     36.32465421	     45.00000000	     35.91075798	     26.97467374	   -832.27538995	  -2461.80762607	     18.01206543	   -179.99999979	   2166.29675279	   -105.95442701	     14.57658393	     10.07585977	     -1.13929147	    -45.00000000	    -45.00000000	     45.00000000	      4.03801480	   -978.50586865	  -2446.25949582	     13.59348485	    179.99999979	   -717.06648536	   -133.13879392	      7.56990933	    -15.62250322
     10.59000000	     34.74372342	     15.18702206	     16.54138712	    -95.68496282	    772.37322754	      5.73209800	     -0.96135277	     35.71407539	     45.00000000	     35.37244522	     24.45379024	   -831.29316527	  -2461.70841171	     17.98492422	   -179.99999979	   2166.70783427	   -109.18601955	     14.75453104	     10.41049547	     -1.54888274	    -45.00000000	    -45.00000000	     45.00000000	      5.50433282	   -977.20358476	  -2443.94439541	     14.01252818	    179.99999979	   -715.62147262	   -142.59446388	      7.73411566	    -13.95374220
